Coordinates
version=1
nRows=8
nColumns=36
inDegrees=yes

Units are S.I. units (second, meters, Newtons, ...)
If the header above contains a line with 'inDegrees', this indicates whether rotational values are in degrees (yes) or radians (no).

endheader
time	pelvis_tilt	pelvis_list	pelvis_rotation	pelvis_tx	pelvis_ty	pelvis_tz	hip_flexion_r	hip_adduction_r	hip_rotation_r	knee_angle_r	knee_angle_r_beta	ankle_angle_r	subtalar_angle_r	mtp_angle_r	hip_flexion_l	hip_adduction_l	hip_rotation_l	knee_angle_l	knee_angle_l_beta	ankle_angle_l	subtalar_angle_l	mtp_angle_l	lumbar_extension	lumbar_bending	lumbar_rotation	arm_flex_r	arm_add_r	arm_rot_r	elbow_flex_r	pro_sup_r	arm_flex_l	arm_add_l	arm_rot_l	elbow_flex_l	pro_sup_l
      3.43750000	     -1.06773074	      1.19917606	     -3.70803760	      0.30158163	      1.01190938	     -0.14724317	     20.49455625	     -9.75005986	      2.09984099	     37.06899217	      0.64697596	     10.94784524	    -18.01264293	     -7.49999987	     20.12395458	     -6.33178363	     -3.24779965	     42.63380625	      0.74410029	      7.08674134	    -13.90908526	     -7.49999987	    -14.38125351	      1.94450302	     -1.44609506	     46.94905008	    -19.82873778	     16.19013060	    135.40528144	     97.13170826	     52.87417504	    -12.14375132	     18.11417818	    140.16276394	     85.00649989
      3.44166670	     -1.21256178	      0.91337045	     -3.93999887	      0.30221584	      0.99560144	     -0.14727145	     21.84931365	     -9.30800950	      2.79644505	     39.27508388	      0.68547953	     13.88649436	    -18.43262775	     -7.49999987	     21.38116265	     -6.50631147	     -2.29967450	     45.23731211	      0.78954004	     10.85612374	    -13.33166488	     -7.49999987	    -15.26394520	      2.37894256	     -1.29726708	     45.99306756	    -19.14752723	     16.28596846	    135.52154863	     96.14311733	     50.96215259	    -12.03366467	     18.16641327	    141.01063846	     84.38513564
      3.44583330	     -1.24960866	      0.54564063	     -3.97893602	      0.30140861	      0.98917589	     -0.14683860	     22.67060476	     -8.87002250	      3.09655810	     40.89510783	      0.71375428	     16.42761525	    -18.15186362	     -7.49999987	     22.43102065	     -6.81565503	     -1.63947563	     47.55686062	      0.83002380	     14.75992557	    -12.29481908	     -7.49999987	    -16.28801770	      2.97873189	     -1.38199322	     45.32608520	    -18.36806256	     16.64325893	    135.66972963	     95.18886926	     48.71076265	    -11.87673967	     17.57976290	    141.98578495	     84.00670889
      3.45000000	     -1.51144959	     -0.01920587	     -3.97195280	      0.29380304	      0.97635266	     -0.14630831	     24.39864390	     -8.27382781	      3.24103068	     43.25667116	      0.75497134	     18.46615442	    -17.82138745	     -7.49999987	     23.96515563	     -7.33674887	     -0.80295450	     49.66629510	      0.86684038	     17.84676419	    -12.38257504	     -7.49999987	    -17.35224124	      3.65541526	     -1.71513440	     45.10566609	    -17.56989985	     17.33066105	    135.10073635	    101.34485886	     47.04249232	    -11.98785624	     16.69769503	    142.72258150	     89.27638169
      3.45416670	     -1.14423553	     -0.33810393	     -3.68933773	      0.29667693	      0.96713868	     -0.15119332	     25.08428102	     -8.23079640	      3.39545187	     45.68517998	      0.79735681	     20.10293896	    -17.38485745	     -7.49999987	     24.13515662	     -7.35058656	     -0.49696078	     51.15173472	      0.89276619	     20.61722050	    -12.99602993	     -7.49999987	    -18.83830120	      4.06409219	     -1.73661819	     44.40878991	    -17.42310691	     17.45097103	    134.69935353	    101.19060638	     45.85514422	    -11.34316264	     17.00508920	    142.62764342	     89.22930784
      3.45833330	     -1.11166214	     -0.48727464	     -3.58290314	      0.28455196	      0.95115302	     -0.14524258	     27.21664135	     -8.04122738	      3.57563656	     49.24205936	      0.85943607	     22.36863287	    -16.85769136	     -7.49999987	     25.70440309	     -7.54697227	     -0.28155924	     53.63530027	      0.93611258	     23.02164540	    -13.67841744	     -7.49999987	    -20.51861157	      4.05293407	     -1.63068976	     44.32502765	    -17.07399244	     17.79696021	    134.76370915	     97.47377651	     45.78912246	    -11.06496425	     17.51277327	    142.91265788	     86.71043758
      3.46250000	     -0.62168731	     -0.60876073	     -3.47681441	      0.27939933	      0.94242128	     -0.14940246	     28.85639248	     -8.03816652	      3.88911521	     52.80988706	      0.92170641	     23.65170457	    -16.80657702	     -7.49999987	     26.75784010	     -7.41774455	      0.31803275	     56.09025048	      0.97895955	     24.85164774	    -14.52298694	     -7.49999987	    -22.54115110	      4.18559336	     -1.41691812	     44.62654669	    -16.86183821	     17.85128468	    134.07107265	     97.64742925	     45.92858399	    -10.40666179	     17.58535870	    142.82872731	     86.91778643
      3.46666670	     -0.52108005	     -0.35186749	     -3.37533060	      0.27555501	      0.93551616	     -0.15323204	     31.13072224	     -8.65603552	      4.31382018	     56.35403241	      0.98356341	     25.01836612	    -15.77885789	     -7.49999987	     27.96860887	     -6.76072449	      0.67260069	     58.03272913	      1.01286220	     26.51703484	    -15.01553974	     -7.49999987	    -24.32981303	      4.27831231	     -1.66816036	     45.00225913	    -16.54898418	     18.32927378	    134.03349576	     98.15996494	     45.54511081	    -10.27532426	     17.79277655	    143.17653208	     87.40221199
